<svg xmlns="http://www.w3.org/2000/svg" shape-rendering="geometricPrecision" width="20" height="20" text-rendering="geometricPrecision" image-rendering="optimizeQuality" fill-rule="evenodd" clip-rule="evenodd" viewBox="0 0 424 511.65">
    <path d="M28.21 53.37h67.64v43.72H66.68c-13.03 0-23.82 10.8-23.82 23.82v326.57c0 13.04 10.73 23.82 23.82 23.82h290.64c13.09 0 23.82-10.75 23.82-23.82V120.91c0-13.08-10.79-23.82-23.82-23.82h-29.17V53.37h67.64c15.52 0 28.21 12.77 28.21 28.21v401.86c0 15.46-12.75 28.21-28.21 28.21H28.21C12.75 511.65 0 498.96 0 483.44V81.58c0-15.52 12.69-28.21 28.21-28.21zm160.64 280.31c0-8.83.63-16.78 1.93-23.78 1.24-7.07 3.43-13.4 6.54-18.96 3.07-5.55 7.32-10.49 12.67-14.75 4.67-3.69 8.68-7.22 11.94-10.75 3.33-3.48 5.87-6.95 7.69-10.38 1.82-3.48 2.75-6.91 2.75-10.39 0-6.96-1.45-12-4.41-15.06-2.96-3.02-7.38-4.57-13.25-4.57-4.56 0-8.72 1.77-12.56 5.19-3.79 3.43-5.77 9.25-5.97 17.35h-55.1c.2-15.94 3.58-28.77 10.13-38.48 6.54-9.77 15.32-16.83 26.38-21.29 11.06-4.47 23.47-6.71 37.12-6.71 22.65 0 40.41 5.09 53.34 15.28 12.93 10.17 19.42 25.39 19.42 45.59 0 8.72-1.71 16.15-5.03 22.33-3.38 6.17-7.79 11.94-13.3 17.29-5.56 5.3-11.74 11.12-18.49 17.4-5.92 5.09-9.86 10.12-11.89 15.06-2.02 4.98-3.16 11.52-3.48 19.63h-46.43zm-6.54 45.49c0-8.1 2.81-14.85 8.36-20.2 5.61-5.41 12.83-8.11 21.77-8.11 9.03 0 16.3 2.7 21.86 8.11 5.5 5.35 8.25 12.1 8.25 20.2 0 8-2.75 14.74-8.25 20.15-5.56 5.45-12.83 8.15-21.86 8.15-8.94 0-16.16-2.7-21.77-8.15-5.55-5.41-8.36-12.15-8.36-20.15zM134.93 39.4h31.97C169.6 17.18 187.53 0 209.28 0c21.6 0 39.44 16.95 42.33 38.93l37.42.47c2.62 0 4.71 2.09 4.71 4.7v63.84c0 2.6-2.09 4.7-4.71 4.7H134.97c-2.56 0-4.7-2.1-4.7-4.7V44.1c-.05-2.61 2.05-4.7 4.66-4.7zm56.84 19.33c2.89 3.96 7.03 7.86 11.41 9.87 3.58 1.07 7.49 1.17 11.13.18 5.68-2.61 10.9-8.89 13.31-14.15.29-1.49.48-3.03.48-4.71 0-11.13-8.53-20.16-19.06-20.16-10.52 0-19.04 9.03-19.04 20.16.05 3.36.65 6.34 1.77 8.81z"/>
</svg>